<?xml version="1.0" encoding="iso-8859-1"?>
<!-- Uploaded to: SVG Repo, www.svgrepo.com, Generator: SVG Repo Mixer Tools -->
<svg fill="#000000" height="800px" width="800px" version="1.1" id="Layer_1" xmlns="http://www.w3.org/2000/svg" xmlns:xlink="http://www.w3.org/1999/xlink" 
	 viewBox="0 0 511.999 511.999" xml:space="preserve">
<g>
	<g>
		<g>
			<path d="M455.241,19.689h-74.545c-4.645,0-8.409,3.764-8.409,8.409c0,4.645,3.764,8.409,8.409,8.409h74.545
				c22.023,0,39.939,17.916,39.939,39.938v359.107c0,22.022-17.916,39.938-39.939,39.938H335.334c-4.645,0-8.409,3.764-8.409,8.409
				s3.764,8.409,8.409,8.409h119.907c31.297,0,56.759-25.461,56.758-56.756V76.446C511.999,45.15,486.537,19.689,455.241,19.689z"/>
			<path d="M301.697,475.491H56.758c-22.023,0-39.939-17.916-39.939-39.938V76.446c0-22.022,17.916-39.938,39.939-39.938H347.06
				c4.645,0,8.409-3.764,8.409-8.409c0-4.645-3.764-8.409-8.409-8.409H56.758C25.462,19.689,0,45.15,0,76.446v359.107
				c0,31.296,25.462,56.756,56.758,56.756h244.94c4.645,0,8.409-3.764,8.409-8.409S306.342,475.491,301.697,475.491z"/>
		</g>
	</g>
</g>
<g>
	<g>
		<path d="M447.441,61.651H72.583c-9.604,0-17.418,7.814-17.418,17.417v83.737c0,9.604,7.814,17.418,17.418,17.418h36.321
			c4.645,0,8.409-3.764,8.409-8.409c0-4.645-3.764-8.409-8.409-8.409H72.583c-0.325,0-0.6-0.275-0.6-0.6V79.068
			c0-0.325,0.275-0.599,0.6-0.599h374.859c0.325,0,0.6,0.274,0.6,0.599v83.735c0,0.325-0.275,0.6-0.6,0.6H142.54
			c-4.645,0-8.409,3.764-8.409,8.409s3.764,8.409,8.409,8.409h304.901c9.606,0,17.419-7.813,17.418-17.417V79.068
			C464.859,69.465,457.045,61.651,447.441,61.651z"/>
	</g>
</g>
<g>
	<g>
		<path d="M228.892,208.704H63.573c-4.645,0-8.409,3.764-8.409,8.409v77.772c0,4.645,3.764,8.409,8.409,8.409h165.319
			c4.644,0,8.409-3.764,8.408-8.409v-77.772C237.301,212.468,233.537,208.704,228.892,208.704z M220.482,286.476h-148.5v-60.953
			h148.5V286.476z"/>
	</g>
</g>
<g>
	<g>
		<path d="M228.892,340.621H63.573c-4.645,0-8.409,3.764-8.409,8.409v77.772c0,4.645,3.764,8.409,8.409,8.409h165.319
			c4.644,0,8.409-3.764,8.408-8.409V349.03C237.301,344.385,233.537,340.621,228.892,340.621z M220.482,418.393h-148.5V357.44h148.5
			V418.393z"/>
	</g>
</g>
<g>
	<g>
		<path d="M447.441,208.704H282.122c-4.645,0-8.409,3.764-8.409,8.409v77.772c0,4.645,3.764,8.409,8.409,8.409h165.319
			c4.645,0,8.409-3.764,8.409-8.409v-77.772C455.85,212.468,452.086,208.704,447.441,208.704z M439.032,286.476H290.531v-60.953
			h148.501V286.476z"/>
	</g>
</g>
<g>
	<g>
		<path d="M447.441,340.621H282.122c-4.645,0-8.409,3.764-8.409,8.409v77.772c0,4.645,3.764,8.409,8.409,8.409h165.319
			c4.645,0,8.409-3.764,8.409-8.409V349.03C455.85,344.385,452.086,340.621,447.441,340.621z M439.032,418.393H290.531V357.44
			h148.501V418.393z"/>
	</g>
</g>
</svg>