<?xml version="1.0" encoding="iso-8859-1"?>
<!-- Uploaded to: SVG Repo, www.svgrepo.com, Generator: SVG Repo Mixer Tools -->
<svg fill="#000000" height="800px" width="800px" version="1.1" id="Layer_1" xmlns="http://www.w3.org/2000/svg" xmlns:xlink="http://www.w3.org/1999/xlink" 
	 viewBox="0 0 512 512" xml:space="preserve">
<g>
	<g>
		<path d="M332.715,0H63.358v512h385.285V115.927L332.715,0z M341.624,51.925l55.093,55.093h-55.093V51.925z M174.887,30.417h136.32
			v23.091h-136.32V30.417z M174.887,83.925h136.32v23.092h-136.32V83.925z M174.887,137.435h136.32h107.018v23.092H174.887V137.435z
			 M144.47,481.582H93.775v-23.091h50.695V481.582z M144.47,428.074H93.775v-23.092h50.695V428.074z M144.47,374.564H93.775v-23.092
			h50.695V374.564z M144.47,321.055H93.775v-23.092h50.695V321.055z M144.47,267.546H93.775v-23.092h50.695V267.546z
			 M144.47,214.036H93.775v-23.092h50.695V214.036z M144.47,160.527H93.775v-23.092h50.695V160.527z M144.47,107.018H93.775V83.925
			h50.695V107.018z M144.47,53.508H93.775V30.417h50.695V53.508z M418.225,481.583H174.887v-23.091h243.338V481.583z
			 M418.225,428.074H174.887v-23.092h243.338V428.074z M418.225,374.565H174.887v-23.092h243.338V374.565z M418.225,321.055H174.887
			v-23.092h243.338V321.055z M418.225,267.546H174.887v-23.092h243.338V267.546z M418.225,214.037H174.887v-23.092h243.338V214.037z
			"/>
	</g>
</g>
</svg>