<?xml version="1.0" encoding="iso-8859-1"?>
<!-- Uploaded to: SVG Repo, www.svgrepo.com, Generator: SVG Repo Mixer Tools -->
<!DOCTYPE svg PUBLIC "-//W3C//DTD SVG 1.1//EN" "http://www.w3.org/Graphics/SVG/1.1/DTD/svg11.dtd">
<svg fill="#000000" version="1.1" id="Capa_1" xmlns="http://www.w3.org/2000/svg" xmlns:xlink="http://www.w3.org/1999/xlink" 
	 width="800px" height="800px" viewBox="0 0 471.764 471.764"
	 xml:space="preserve">
<g>
	<g>
		<path d="M387.143,84.098H84.623c-9.465,0-17.166,7.7-17.166,17.165v89.604c0,0.069,0.002,0.14,0.006,0.211
			c-0.004,0.072-0.006,0.144-0.006,0.215v179.208c0,9.464,7.701,17.164,17.166,17.164h151.135c0.043,0,0.082-0.006,0.125-0.006
			c0.041,0,0.082,0.006,0.123,0.006h151.137c9.465,0,17.164-7.7,17.164-17.164V191.292c0-0.069,0-0.138-0.004-0.207l0.004-89.822
			C404.307,91.798,396.607,84.098,387.143,84.098z M218.596,353.336H101.787v-55.273h116.809V353.336L218.596,353.336z
			 M218.596,263.733H101.787v-55.274h116.809V263.733L218.596,263.733z M369.979,353.336H253.172v-55.273h116.807V353.336
			L369.979,353.336z M369.979,263.733H253.172v-55.274h116.807V263.733L369.979,263.733z"/>
		<path d="M469.926,236.177c-1.123-0.521-2.443-0.342-3.387,0.456l-49.383,41.764c-0.714,0.603-1.125,1.488-1.125,2.424
			c0,0.935,0.411,1.82,1.125,2.424l49.383,41.765c0.584,0.494,1.313,0.751,2.051,0.751c0.451,0,0.908-0.097,1.336-0.295
			c1.121-0.521,1.838-1.645,1.838-2.88v-83.528C471.764,237.821,471.047,236.696,469.926,236.177z"/>
		<path d="M5.225,236.633c-0.941-0.798-2.264-0.978-3.385-0.456C0.717,236.698,0,237.821,0,239.056v83.528
			c0,1.234,0.717,2.359,1.84,2.88c0.426,0.198,0.883,0.295,1.334,0.295c0.736,0,1.467-0.257,2.051-0.751l49.383-41.764
			c0.713-0.604,1.125-1.49,1.125-2.424c0-0.937-0.412-1.822-1.125-2.426L5.225,236.633z"/>
	</g>
</g>
</svg>