<?xml version="1.0" encoding="iso-8859-1"?>
<!-- Uploaded to: SVG Repo, www.svgrepo.com, Generator: SVG Repo Mixer Tools -->
<svg fill="#000000" height="800px" width="800px" version="1.1" id="Layer_1" xmlns="http://www.w3.org/2000/svg" xmlns:xlink="http://www.w3.org/1999/xlink" 
	 viewBox="0 0 512.001 512.001" xml:space="preserve">
<g>
	<g>
		<path d="M235.277,118.725H48.886c-4.422,0-8.008,3.585-8.008,8.008v258.534c0,4.422,3.585,8.008,8.008,8.008h186.391
			c4.422,0,8.008-3.585,8.008-8.008V126.733C243.285,122.311,239.699,118.725,235.277,118.725z M227.269,377.259H56.893V134.74
			h170.376V377.259z"/>
	</g>
</g>
<g>
	<g>
		<path d="M483.553,77.847H132.589c-4.422,0-8.008,3.585-8.008,8.008s3.585,8.008,8.008,8.008h350.964
			c6.856,0,12.433,5.576,12.433,12.432v299.413c0,6.854-5.578,12.432-12.433,12.432h-72.315c-4.422,0-8.008,3.585-8.008,8.008
			s3.585,8.008,8.008,8.008h72.315c15.686,0,28.448-12.761,28.448-28.447V106.293C512,90.608,499.239,77.847,483.553,77.847z"/>
	</g>
</g>
<g>
	<g>
		<path d="M379.207,418.139H28.447c-6.854,0-12.432-5.576-12.432-12.432V106.293c0-6.854,5.576-12.432,12.432-12.432h72.112
			c4.422,0,8.008-3.585,8.008-8.008s-3.585-8.008-8.008-8.008H28.447C12.761,77.847,0,90.608,0,106.293v299.413
			c0,15.685,12.761,28.447,28.447,28.447h350.761c4.422,0,8.008-3.585,8.008-8.008S383.629,418.139,379.207,418.139z"/>
	</g>
</g>
<g>
	<g>
		<path d="M463.114,118.725H276.723c-4.422,0-8.008,3.585-8.008,8.008v258.534c0,4.422,3.585,8.008,8.008,8.008h186.391
			c4.422,0,8.008-3.585,8.008-8.008V126.733C471.122,122.311,467.537,118.725,463.114,118.725z M455.107,377.259H284.731V134.74
			h170.376V377.259z"/>
	</g>
</g>
<g>
	<g>
		<path d="M211.947,250.053l-92.627-83.478c-2.349-2.117-5.725-2.653-8.616-1.368c-2.89,1.285-4.752,4.152-4.752,7.316v166.955
			c0,3.164,1.862,6.03,4.752,7.316c1.045,0.466,2.154,0.692,3.253,0.692c1.943,0,3.863-0.708,5.362-2.06l92.628-83.477
			c1.685-1.518,2.647-3.68,2.647-5.948C214.594,253.733,213.633,251.571,211.947,250.053z M121.968,321.481V190.519L194.626,256
			L121.968,321.481z"/>
	</g>
</g>
<g>
	<g>
		<path d="M401.295,165.208c-2.89-1.287-6.266-0.751-8.616,1.368l-92.627,83.477c-1.685,1.518-2.647,3.68-2.647,5.948
			c0,2.268,0.962,4.43,2.647,5.948l92.627,83.477c1.5,1.353,3.419,2.06,5.362,2.06c1.101,0,2.209-0.226,3.254-0.692
			c2.89-1.285,4.752-4.152,4.752-7.316V172.523C406.047,169.36,404.185,166.493,401.295,165.208z M390.032,321.481l-72.658-65.482
			l72.658-65.482V321.481z"/>
	</g>
</g>
</svg>